<svg xmlns="http://www.w3.org/2000/svg" xmlns:xlink="http://www.w3.org/1999/xlink" width="500" zoomAndPan="magnify" viewBox="0 0 375 374.999991" height="500" preserveAspectRatio="xMidYMid meet" version="1.0"><defs><clipPath id="45c05d24a5"><path d="M 81.273438 59.761719 L 318 59.761719 L 318 182 L 81.273438 182 Z M 81.273438 59.761719 " clip-rule="nonzero"/></clipPath><clipPath id="ca85289f00"><path d="M 176.570312 215.601562 L 318.191406 215.601562 L 318.191406 303.785156 L 176.570312 303.785156 Z M 176.570312 215.601562 " clip-rule="nonzero"/></clipPath><clipPath id="9653a06a43"><path d="M 83.007812 137.113281 L 322.457031 137.113281 L 322.457031 279.871094 L 83.007812 279.871094 Z M 83.007812 137.113281 " clip-rule="nonzero"/></clipPath><clipPath id="dccef8c2d3"><path d="M 127 216.117188 L 351 216.117188 L 351 315.542969 L 127 315.542969 Z M 127 216.117188 " clip-rule="nonzero"/></clipPath><clipPath id="4b21d48c0b"><path d="M 92.425781 223.019531 L 116.425781 223.019531 L 116.425781 247 L 92.425781 247 Z M 92.425781 223.019531 " clip-rule="nonzero"/></clipPath><clipPath id="78fc7ddb63"><path d="M 96.023438 228.871094 L 120 228.871094 L 120 252.871094 L 96.023438 252.871094 Z M 96.023438 228.871094 " clip-rule="nonzero"/></clipPath></defs><rect x="-37.5" width="450" fill="#ffffff" y="-37.499999" height="449.999989" fill-opacity="1"/><rect x="-37.5" width="450" fill="#ffffff" y="-37.499999" height="449.999989" fill-opacity="1"/><g clip-path="url(#45c05d24a5)"><path fill="#f6f4eb" d="M 173.847656 170.785156 C 182.707031 163.734375 188.765625 153.855469 195.992188 145.140625 C 203.21875 136.425781 212.605469 128.371094 223.882812 127.382812 C 233.335938 126.554688 242.480469 130.847656 250.507812 135.902344 C 258.539062 140.957031 266.140625 146.945312 275.066406 150.167969 C 288.859375 155.152344 304.601562 152.527344 317.09375 144.742188 C 301.414062 95.460938 255.28125 59.761719 200.804688 59.761719 C 141.894531 59.761719 92.734375 101.515625 81.304688 157.046875 C 88.171875 163.054688 95.53125 168.410156 103.632812 172.691406 C 125.546875 184.269531 154.449219 186.214844 173.847656 170.785156 " fill-opacity="1" fill-rule="nonzero"/></g><g clip-path="url(#ca85289f00)"><path fill="#749bc2" d="M 266.804688 222.855469 C 257.832031 220.292969 249.097656 215.75 239.78125 216.246094 C 225.371094 217.015625 214.3125 229.652344 208.394531 242.816406 C 202.476562 255.976562 199.839844 270.570312 192.628906 283.070312 C 188.515625 290.195312 183.074219 296.300781 176.738281 301.410156 C 184.519531 302.964844 192.566406 303.785156 200.804688 303.785156 C 256.445312 303.785156 303.386719 266.539062 318.058594 215.621094 C 302.792969 224.648438 283.90625 227.734375 266.804688 222.855469 " fill-opacity="1" fill-rule="nonzero"/></g><g clip-path="url(#9653a06a43)"><path fill="#91c8e4" d="M 185.707031 260.90625 C 193.027344 252.269531 197.042969 241.398438 202.433594 231.441406 C 207.824219 221.484375 215.460938 211.753906 226.332031 208.589844 C 235.441406 205.933594 245.242188 208.367188 254.105469 211.757812 C 262.96875 215.152344 271.589844 219.542969 280.972656 220.964844 C 294.902344 223.078125 309.226562 217.953125 319.851562 208.621094 C 321.792969 199.980469 322.816406 190.996094 322.816406 181.773438 C 322.816406 170.667969 321.332031 159.910156 318.554688 149.683594 C 300.519531 158.078125 278.574219 158.382812 260.804688 149.261719 C 252.503906 145 244.820312 138.84375 235.585938 137.511719 C 221.300781 135.460938 207.992188 145.703125 199.621094 157.457031 C 191.253906 169.214844 185.824219 183.015625 176.316406 193.867188 C 159.644531 212.898438 132.511719 220.015625 107.269531 218.3125 C 99.144531 217.765625 91.144531 216.421875 83.25 214.550781 C 90.4375 240.382812 105.910156 262.765625 126.625 278.652344 C 148.171875 282.328125 171.761719 277.378906 185.707031 260.90625 " fill-opacity="1" fill-rule="nonzero"/></g><g clip-path="url(#dccef8c2d3)"><path fill="#f6f4eb" d="M 212.78125 227.921875 C 217.792969 232.867188 215.644531 230.949219 223.628906 235.855469 C 223.824219 235.976562 224.082031 236.132812 224.273438 236.25 L 228.105469 238.558594 C 234.289062 242.316406 250.632812 251.210938 253.199219 254.972656 C 235.167969 263.777344 217.765625 270.121094 195.238281 274.691406 C 184.128906 276.945312 174.128906 278.621094 162.617188 280.003906 C 156.367188 280.753906 130.308594 281.617188 127.425781 282.859375 C 139.078125 289.722656 184.714844 288.324219 200.984375 286.59375 C 216.675781 284.921875 237.394531 281.492188 252.300781 276.898438 C 257.515625 275.292969 262.425781 272.96875 268.191406 272.082031 L 263.0625 315.234375 C 266.042969 314.550781 269.867188 313.242188 272.019531 312.1875 C 275.628906 310.421875 275.28125 309.808594 277.472656 306.242188 L 302.957031 265.609375 C 312.484375 250.984375 311.085938 253.332031 327.007812 245.210938 C 335.019531 241.125 351.992188 235.039062 349.996094 224.191406 C 348.738281 217.367188 340.859375 216.117188 335.242188 217.152344 C 330.824219 217.964844 309.308594 227.9375 303.921875 230.410156 C 295.09375 234.460938 296.105469 233.898438 286.046875 232.5 C 272.777344 230.65625 260.78125 228.671875 247.464844 226.441406 C 240.949219 225.347656 235.179688 224.746094 228.636719 223.570312 C 223.488281 222.648438 217.117188 226.136719 212.78125 227.921875 Z M 212.78125 227.921875 " fill-opacity="1" fill-rule="evenodd"/></g><path fill="#91c8e4" d="M 165.890625 293.820312 C 121.132812 292.101562 118.1875 283.722656 105.398438 282.515625 C 98.441406 281.859375 91.738281 280.980469 85.464844 278.945312 C 69.257812 273.699219 68.980469 262.410156 79.921875 252.296875 C 91.59375 241.507812 100.523438 239.28125 108.457031 233.277344 C 95.207031 236.179688 22.996094 270.246094 53.910156 290.9375 C 76.484375 306.042969 158.570312 299.074219 165.890625 293.820312 Z M 165.890625 293.820312 " fill-opacity="1" fill-rule="evenodd"/><path fill="#749bc2" d="M 117.726562 277.65625 C 125.03125 277.644531 136.476562 278.082031 142.613281 275.832031 C 122.566406 274.9375 100.933594 276.195312 89.03125 265.324219 C 87.589844 255.0625 95.117188 250.035156 99.003906 245.890625 C 85.941406 250.363281 52.027344 277.769531 117.726562 277.65625 Z M 117.726562 277.65625 " fill-opacity="1" fill-rule="evenodd"/><g clip-path="url(#4b21d48c0b)"><path fill="#91c8e4" d="M 116.402344 235.007812 C 116.402344 235.796875 116.324219 236.574219 116.171875 237.347656 C 116.019531 238.121094 115.789062 238.871094 115.488281 239.597656 C 115.1875 240.324219 114.820312 241.015625 114.382812 241.667969 C 113.945312 242.324219 113.445312 242.929688 112.890625 243.484375 C 112.332031 244.042969 111.726562 244.539062 111.074219 244.976562 C 110.417969 245.414062 109.726562 245.785156 109 246.085938 C 108.273438 246.386719 107.523438 246.613281 106.753906 246.765625 C 105.980469 246.921875 105.199219 246.996094 104.414062 246.996094 C 103.625 246.996094 102.847656 246.921875 102.074219 246.765625 C 101.300781 246.613281 100.554688 246.386719 99.824219 246.085938 C 99.097656 245.785156 98.40625 245.414062 97.753906 244.976562 C 97.097656 244.539062 96.492188 244.042969 95.9375 243.484375 C 95.378906 242.929688 94.882812 242.324219 94.445312 241.667969 C 94.007812 241.015625 93.640625 240.324219 93.335938 239.597656 C 93.035156 238.871094 92.808594 238.121094 92.65625 237.347656 C 92.5 236.574219 92.425781 235.796875 92.425781 235.007812 C 92.425781 234.222656 92.5 233.441406 92.65625 232.671875 C 92.808594 231.898438 93.035156 231.148438 93.335938 230.421875 C 93.640625 229.695312 94.007812 229.003906 94.445312 228.347656 C 94.882812 227.695312 95.378906 227.089844 95.9375 226.53125 C 96.492188 225.976562 97.097656 225.480469 97.753906 225.042969 C 98.40625 224.605469 99.097656 224.234375 99.824219 223.933594 C 100.554688 223.632812 101.300781 223.40625 102.074219 223.25 C 102.847656 223.097656 103.625 223.019531 104.414062 223.019531 C 105.199219 223.019531 105.980469 223.097656 106.753906 223.25 C 107.523438 223.40625 108.273438 223.632812 109 223.933594 C 109.726562 224.234375 110.417969 224.605469 111.074219 225.042969 C 111.726562 225.480469 112.332031 225.976562 112.890625 226.53125 C 113.445312 227.089844 113.945312 227.695312 114.382812 228.347656 C 114.820312 229.003906 115.1875 229.695312 115.488281 230.421875 C 115.789062 231.148438 116.019531 231.898438 116.171875 232.671875 C 116.324219 233.441406 116.402344 234.222656 116.402344 235.007812 Z M 116.402344 235.007812 " fill-opacity="1" fill-rule="nonzero"/></g><g clip-path="url(#78fc7ddb63)"><path fill="#91c8e4" d="M 120 240.859375 C 120 241.644531 119.925781 242.425781 119.769531 243.199219 C 119.617188 243.96875 119.390625 244.71875 119.089844 245.445312 C 118.789062 246.175781 118.417969 246.863281 117.980469 247.519531 C 117.542969 248.175781 117.046875 248.78125 116.492188 249.335938 C 115.933594 249.894531 115.328125 250.390625 114.671875 250.828125 C 114.019531 251.265625 113.328125 251.632812 112.601562 251.933594 C 111.875 252.234375 111.125 252.464844 110.351562 252.617188 C 109.582031 252.769531 108.800781 252.847656 108.011719 252.847656 C 107.226562 252.847656 106.445312 252.769531 105.675781 252.617188 C 104.902344 252.464844 104.152344 252.234375 103.425781 251.933594 C 102.699219 251.632812 102.007812 251.265625 101.351562 250.828125 C 100.699219 250.390625 100.09375 249.894531 99.535156 249.335938 C 98.980469 248.78125 98.484375 248.175781 98.046875 247.519531 C 97.609375 246.863281 97.238281 246.175781 96.9375 245.445312 C 96.636719 244.71875 96.410156 243.96875 96.253906 243.199219 C 96.101562 242.425781 96.023438 241.644531 96.023438 240.859375 C 96.023438 240.070312 96.101562 239.292969 96.253906 238.519531 C 96.410156 237.75 96.636719 237 96.9375 236.269531 C 97.238281 235.542969 97.609375 234.851562 98.046875 234.199219 C 98.484375 233.542969 98.980469 232.9375 99.535156 232.382812 C 100.09375 231.824219 100.699219 231.328125 101.351562 230.890625 C 102.007812 230.453125 102.699219 230.085938 103.425781 229.785156 C 104.152344 229.480469 104.902344 229.253906 105.675781 229.101562 C 106.445312 228.949219 107.226562 228.871094 108.011719 228.871094 C 108.800781 228.871094 109.582031 228.949219 110.351562 229.101562 C 111.125 229.253906 111.875 229.480469 112.601562 229.785156 C 113.328125 230.085938 114.019531 230.453125 114.671875 230.890625 C 115.328125 231.328125 115.933594 231.824219 116.492188 232.382812 C 117.046875 232.9375 117.542969 233.542969 117.980469 234.199219 C 118.417969 234.851562 118.789062 235.542969 119.089844 236.269531 C 119.390625 237 119.617188 237.75 119.769531 238.519531 C 119.925781 239.292969 120 240.070312 120 240.859375 Z M 120 240.859375 " fill-opacity="1" fill-rule="nonzero"/></g></svg>