<svg xmlns="http://www.w3.org/2000/svg" xmlns:xlink="http://www.w3.org/1999/xlink" width="491" zoomAndPan="magnify" viewBox="0 0 368.25 107.249998" height="143" preserveAspectRatio="xMidYMid meet" version="1.0"><defs><g/><clipPath id="5fd426d992"><path d="M 14.066406 17.425781 L 81 17.425781 L 81 52 L 14.066406 52 Z M 14.066406 17.425781 " clip-rule="nonzero"/></clipPath><clipPath id="f82e132ed2"><path d="M 40.796875 61.132812 L 80.519531 61.132812 L 80.519531 85.867188 L 40.796875 85.867188 Z M 40.796875 61.132812 " clip-rule="nonzero"/></clipPath><clipPath id="4d36a253e6"><path d="M 14.554688 39.121094 L 81.714844 39.121094 L 81.714844 79.160156 L 14.554688 79.160156 Z M 14.554688 39.121094 " clip-rule="nonzero"/></clipPath><clipPath id="78c33630d6"><path d="M 27 61.277344 L 89.9375 61.277344 L 89.9375 89.167969 L 27 89.167969 Z M 27 61.277344 " clip-rule="nonzero"/></clipPath><clipPath id="94fc19ed5f"><path d="M 21.308594 66.078125 L 27.933594 66.078125 L 27.933594 72.703125 L 21.308594 72.703125 Z M 21.308594 66.078125 " clip-rule="nonzero"/></clipPath><clipPath id="93512f663a"><path d="M 22.316406 67.71875 L 28.945312 67.71875 L 28.945312 74.34375 L 22.316406 74.34375 Z M 22.316406 67.71875 " clip-rule="nonzero"/></clipPath></defs><g clip-path="url(#5fd426d992)"><path fill="#f6f4eb" d="M 40.03125 48.5625 C 42.515625 46.585938 44.214844 43.816406 46.242188 41.371094 C 48.269531 38.925781 50.902344 36.667969 54.066406 36.390625 C 56.71875 36.160156 59.28125 37.363281 61.535156 38.78125 C 63.785156 40.199219 65.917969 41.878906 68.421875 42.78125 C 72.289062 44.179688 76.707031 43.441406 80.210938 41.261719 C 75.8125 27.4375 62.871094 17.425781 47.59375 17.425781 C 31.070312 17.425781 17.28125 29.136719 14.074219 44.710938 C 16 46.394531 18.066406 47.898438 20.335938 49.097656 C 26.484375 52.347656 34.589844 52.890625 40.03125 48.5625 " fill-opacity="1" fill-rule="nonzero"/></g><g clip-path="url(#f82e132ed2)"><path fill="#749bc2" d="M 66.105469 63.167969 C 63.589844 62.449219 61.136719 61.175781 58.523438 61.316406 C 54.484375 61.53125 51.382812 65.074219 49.722656 68.765625 C 48.0625 72.460938 47.324219 76.550781 45.300781 80.058594 C 44.144531 82.058594 42.621094 83.769531 40.84375 85.203125 C 43.023438 85.640625 45.28125 85.867188 47.59375 85.867188 C 63.199219 85.867188 76.363281 75.421875 80.480469 61.140625 C 76.199219 63.671875 70.902344 64.539062 66.105469 63.167969 " fill-opacity="1" fill-rule="nonzero"/></g><g clip-path="url(#4d36a253e6)"><path fill="#91c8e4" d="M 43.359375 73.84375 C 45.410156 71.417969 46.539062 68.371094 48.050781 65.578125 C 49.5625 62.785156 51.703125 60.054688 54.753906 59.167969 C 57.308594 58.421875 60.058594 59.105469 62.542969 60.054688 C 65.027344 61.007812 67.445312 62.238281 70.078125 62.640625 C 73.984375 63.230469 78.003906 61.792969 80.984375 59.175781 C 81.527344 56.753906 81.816406 54.234375 81.816406 51.644531 C 81.816406 48.53125 81.398438 45.515625 80.621094 42.644531 C 75.5625 45 69.40625 45.085938 64.421875 42.527344 C 62.09375 41.332031 59.9375 39.605469 57.347656 39.230469 C 53.339844 38.65625 49.609375 41.527344 47.261719 44.828125 C 44.914062 48.125 43.390625 51.996094 40.722656 55.039062 C 36.046875 60.375 28.4375 62.371094 21.359375 61.894531 C 19.078125 61.742188 16.835938 61.363281 14.621094 60.839844 C 16.636719 68.085938 20.976562 74.363281 26.789062 78.820312 C 32.832031 79.851562 39.445312 78.460938 43.359375 73.84375 " fill-opacity="1" fill-rule="nonzero"/></g><g clip-path="url(#78c33630d6)"><path fill="#f6f4eb" d="M 50.953125 64.589844 C 52.359375 65.976562 51.753906 65.4375 53.996094 66.816406 C 54.050781 66.847656 54.121094 66.894531 54.175781 66.925781 L 55.25 67.574219 C 56.984375 68.628906 61.570312 71.121094 62.289062 72.175781 C 57.230469 74.648438 52.351562 76.425781 46.03125 77.707031 C 42.914062 78.339844 40.113281 78.8125 36.882812 79.199219 C 35.128906 79.410156 27.820312 79.652344 27.011719 80 C 30.28125 81.921875 43.082031 81.53125 47.644531 81.046875 C 52.046875 80.578125 57.855469 79.617188 62.035156 78.328125 C 63.5 77.875 64.875 77.226562 66.492188 76.976562 L 65.054688 89.078125 C 65.890625 88.886719 66.964844 88.519531 67.566406 88.226562 C 68.578125 87.730469 68.484375 87.558594 69.097656 86.558594 L 76.246094 75.160156 C 78.917969 71.058594 78.523438 71.71875 82.992188 69.441406 C 85.238281 68.292969 90 66.585938 89.4375 63.542969 C 89.085938 61.628906 86.875 61.28125 85.300781 61.570312 C 84.0625 61.796875 78.027344 64.59375 76.515625 65.289062 C 74.039062 66.425781 74.324219 66.265625 71.5 65.875 C 67.78125 65.355469 64.414062 64.800781 60.679688 64.175781 C 58.851562 63.867188 57.234375 63.699219 55.398438 63.371094 C 53.957031 63.109375 52.167969 64.089844 50.953125 64.589844 Z M 50.953125 64.589844 " fill-opacity="1" fill-rule="evenodd"/></g><path fill="#91c8e4" d="M 37.800781 83.074219 C 25.246094 82.589844 24.421875 80.242188 20.832031 79.902344 C 18.882812 79.71875 17.003906 79.472656 15.242188 78.902344 C 10.695312 77.429688 10.617188 74.265625 13.6875 71.425781 C 16.960938 68.402344 19.464844 67.777344 21.691406 66.09375 C 17.976562 66.90625 -2.28125 76.460938 6.390625 82.265625 C 12.722656 86.5 35.746094 84.546875 37.800781 83.074219 Z M 37.800781 83.074219 " fill-opacity="1" fill-rule="evenodd"/><path fill="#749bc2" d="M 24.289062 78.539062 C 26.339844 78.535156 29.550781 78.660156 31.269531 78.027344 C 25.648438 77.777344 19.582031 78.128906 16.242188 75.082031 C 15.839844 72.203125 17.949219 70.792969 19.039062 69.628906 C 15.375 70.882812 5.863281 78.570312 24.289062 78.539062 Z M 24.289062 78.539062 " fill-opacity="1" fill-rule="evenodd"/><g clip-path="url(#94fc19ed5f)"><path fill="#91c8e4" d="M 28.03125 69.4375 C 28.03125 69.886719 27.949219 70.3125 27.777344 70.726562 C 27.605469 71.136719 27.363281 71.503906 27.046875 71.816406 C 26.734375 72.132812 26.367188 72.375 25.957031 72.546875 C 25.546875 72.71875 25.117188 72.800781 24.671875 72.800781 C 24.222656 72.800781 23.796875 72.71875 23.382812 72.546875 C 22.972656 72.375 22.605469 72.132812 22.292969 71.816406 C 21.976562 71.503906 21.734375 71.136719 21.5625 70.726562 C 21.390625 70.3125 21.308594 69.886719 21.308594 69.4375 C 21.308594 68.992188 21.390625 68.5625 21.5625 68.152344 C 21.734375 67.742188 21.976562 67.375 22.292969 67.0625 C 22.605469 66.746094 22.972656 66.503906 23.382812 66.332031 C 23.796875 66.160156 24.222656 66.078125 24.671875 66.078125 C 25.117188 66.078125 25.546875 66.160156 25.957031 66.332031 C 26.367188 66.503906 26.734375 66.746094 27.046875 67.0625 C 27.363281 67.375 27.605469 67.742188 27.777344 68.152344 C 27.949219 68.5625 28.03125 68.992188 28.03125 69.4375 Z M 28.03125 69.4375 " fill-opacity="1" fill-rule="nonzero"/></g><g clip-path="url(#93512f663a)"><path fill="#91c8e4" d="M 29.042969 71.082031 C 29.042969 71.527344 28.957031 71.957031 28.785156 72.367188 C 28.617188 72.777344 28.371094 73.144531 28.058594 73.457031 C 27.742188 73.773438 27.378906 74.015625 26.964844 74.1875 C 26.554688 74.359375 26.125 74.441406 25.679688 74.441406 C 25.234375 74.441406 24.804688 74.359375 24.394531 74.1875 C 23.980469 74.015625 23.617188 73.773438 23.300781 73.457031 C 22.988281 73.144531 22.742188 72.777344 22.574219 72.367188 C 22.402344 71.957031 22.316406 71.527344 22.316406 71.082031 C 22.316406 70.632812 22.402344 70.207031 22.574219 69.792969 C 22.742188 69.382812 22.988281 69.015625 23.300781 68.703125 C 23.617188 68.386719 23.980469 68.144531 24.394531 67.972656 C 24.804688 67.800781 25.234375 67.71875 25.679688 67.71875 C 26.125 67.71875 26.554688 67.800781 26.964844 67.972656 C 27.378906 68.144531 27.742188 68.386719 28.058594 68.703125 C 28.371094 69.015625 28.617188 69.382812 28.785156 69.792969 C 28.957031 70.207031 29.042969 70.632812 29.042969 71.082031 Z M 29.042969 71.082031 " fill-opacity="1" fill-rule="nonzero"/></g><g fill="#f6f4eb" fill-opacity="1"><g transform="translate(95.372918, 72.639461)"><g><path d="M 24.578125 -10.609375 C 24.578125 -12.179688 24.019531 -13.382812 22.90625 -14.21875 C 21.789062 -15.0625 19.789062 -15.953125 16.90625 -16.890625 C 14.019531 -17.828125 11.734375 -18.75 10.046875 -19.65625 C 5.460938 -22.132812 3.171875 -25.472656 3.171875 -29.671875 C 3.171875 -31.859375 3.785156 -33.804688 5.015625 -35.515625 C 6.242188 -37.234375 8.007812 -38.570312 10.3125 -39.53125 C 12.613281 -40.5 15.203125 -40.984375 18.078125 -40.984375 C 20.960938 -40.984375 23.53125 -40.457031 25.78125 -39.40625 C 28.039062 -38.363281 29.796875 -36.890625 31.046875 -34.984375 C 32.296875 -33.078125 32.921875 -30.910156 32.921875 -28.484375 L 24.59375 -28.484375 C 24.59375 -30.335938 24.007812 -31.773438 22.84375 -32.796875 C 21.675781 -33.828125 20.039062 -34.34375 17.9375 -34.34375 C 15.894531 -34.34375 14.3125 -33.910156 13.1875 -33.046875 C 12.0625 -32.191406 11.5 -31.0625 11.5 -29.65625 C 11.5 -28.34375 12.160156 -27.238281 13.484375 -26.34375 C 14.804688 -25.457031 16.753906 -24.625 19.328125 -23.84375 C 24.066406 -22.425781 27.515625 -20.660156 29.671875 -18.546875 C 31.835938 -16.429688 32.921875 -13.800781 32.921875 -10.65625 C 32.921875 -7.15625 31.597656 -4.410156 28.953125 -2.421875 C 26.304688 -0.429688 22.742188 0.5625 18.265625 0.5625 C 15.160156 0.5625 12.328125 -0.00390625 9.765625 -1.140625 C 7.210938 -2.285156 5.265625 -3.847656 3.921875 -5.828125 C 2.585938 -7.804688 1.921875 -10.101562 1.921875 -12.71875 L 10.265625 -12.71875 C 10.265625 -8.257812 12.929688 -6.03125 18.265625 -6.03125 C 20.242188 -6.03125 21.789062 -6.429688 22.90625 -7.234375 C 24.019531 -8.035156 24.578125 -9.160156 24.578125 -10.609375 Z M 24.578125 -10.609375 "/></g></g></g><g fill="#f6f4eb" fill-opacity="1"><g transform="translate(130.327494, 72.639461)"><g><path d="M 27.9375 -17.515625 L 11.9375 -17.515625 L 11.9375 -6.6875 L 30.703125 -6.6875 L 30.703125 0 L 3.609375 0 L 3.609375 -40.421875 L 30.65625 -40.421875 L 30.65625 -33.671875 L 11.9375 -33.671875 L 11.9375 -24.046875 L 27.9375 -24.046875 Z M 27.9375 -17.515625 "/></g></g></g><g fill="#f6f4eb" fill-opacity="1"><g transform="translate(162.311348, 72.639461)"><g><path d="M 26.4375 -8.328125 L 11.828125 -8.328125 L 9.046875 0 L 0.1875 0 L 15.234375 -40.421875 L 22.953125 -40.421875 L 38.09375 0 L 29.234375 0 Z M 14.078125 -15.078125 L 24.1875 -15.078125 L 19.09375 -30.203125 Z M 14.078125 -15.078125 "/></g></g></g><g fill="#91c8e4" fill-opacity="1"><g transform="translate(200.574734, 72.639461)"><g><path d="M 35.09375 -11.65625 L 40.53125 -40.421875 L 48.828125 -40.421875 L 39.875 0 L 31.484375 0 L 24.90625 -27.046875 L 18.328125 0 L 9.9375 0 L 0.96875 -40.421875 L 9.265625 -40.421875 L 14.75 -11.71875 L 21.40625 -40.421875 L 28.453125 -40.421875 Z M 35.09375 -11.65625 "/></g></g></g><g fill="#91c8e4" fill-opacity="1"><g transform="translate(250.299632, 72.639461)"><g><path d="M 20.484375 0 C 20.117188 -0.71875 19.851562 -1.613281 19.6875 -2.6875 C 17.738281 -0.519531 15.210938 0.5625 12.109375 0.5625 C 9.160156 0.5625 6.71875 -0.285156 4.78125 -1.984375 C 2.851562 -3.691406 1.890625 -5.84375 1.890625 -8.4375 C 1.890625 -11.625 3.066406 -14.066406 5.421875 -15.765625 C 7.785156 -17.472656 11.195312 -18.335938 15.65625 -18.359375 L 19.34375 -18.359375 L 19.34375 -20.078125 C 19.34375 -21.460938 18.988281 -22.570312 18.28125 -23.40625 C 17.570312 -24.238281 16.445312 -24.65625 14.90625 -24.65625 C 13.550781 -24.65625 12.488281 -24.328125 11.71875 -23.671875 C 10.957031 -23.023438 10.578125 -22.140625 10.578125 -21.015625 L 2.546875 -21.015625 C 2.546875 -22.753906 3.082031 -24.363281 4.15625 -25.84375 C 5.238281 -27.320312 6.757812 -28.484375 8.71875 -29.328125 C 10.675781 -30.171875 12.878906 -30.59375 15.328125 -30.59375 C 19.023438 -30.59375 21.960938 -29.660156 24.140625 -27.796875 C 26.316406 -25.941406 27.40625 -23.332031 27.40625 -19.96875 L 27.40625 -6.9375 C 27.425781 -4.09375 27.820312 -1.9375 28.59375 -0.46875 L 28.59375 0 Z M 13.859375 -5.578125 C 15.035156 -5.578125 16.125 -5.835938 17.125 -6.359375 C 18.125 -6.890625 18.863281 -7.601562 19.34375 -8.5 L 19.34375 -13.65625 L 16.359375 -13.65625 C 12.335938 -13.65625 10.195312 -12.269531 9.9375 -9.5 L 9.90625 -9.015625 C 9.90625 -8.023438 10.253906 -7.203125 10.953125 -6.546875 C 11.660156 -5.898438 12.628906 -5.578125 13.859375 -5.578125 Z M 13.859375 -5.578125 "/></g></g></g><g fill="#91c8e4" fill-opacity="1"><g transform="translate(280.784243, 72.639461)"><g><path d="M 12.6875 -37.421875 L 12.6875 -30.046875 L 17.828125 -30.046875 L 17.828125 -24.15625 L 12.6875 -24.15625 L 12.6875 -9.15625 C 12.6875 -8.050781 12.898438 -7.253906 13.328125 -6.765625 C 13.753906 -6.285156 14.566406 -6.046875 15.765625 -6.046875 C 16.660156 -6.046875 17.445312 -6.113281 18.125 -6.25 L 18.125 -0.171875 C 16.550781 0.316406 14.929688 0.5625 13.265625 0.5625 C 7.640625 0.5625 4.773438 -2.28125 4.671875 -7.96875 L 4.671875 -24.15625 L 0.28125 -24.15625 L 0.28125 -30.046875 L 4.671875 -30.046875 L 4.671875 -37.421875 Z M 12.6875 -37.421875 "/></g></g></g><g fill="#91c8e4" fill-opacity="1"><g transform="translate(299.996766, 72.639461)"><g><path d="M 16.90625 0.5625 C 12.5 0.5625 8.910156 -0.785156 6.140625 -3.484375 C 3.378906 -6.191406 2 -9.796875 2 -14.296875 L 2 -15.078125 C 2 -18.085938 2.582031 -20.78125 3.75 -23.15625 C 4.914062 -25.539062 6.566406 -27.375 8.703125 -28.65625 C 10.835938 -29.945312 13.273438 -30.59375 16.015625 -30.59375 C 20.128906 -30.59375 23.363281 -29.296875 25.71875 -26.703125 C 28.082031 -24.117188 29.265625 -20.445312 29.265625 -15.6875 L 29.265625 -12.40625 L 10.140625 -12.40625 C 10.390625 -10.445312 11.164062 -8.875 12.46875 -7.6875 C 13.78125 -6.5 15.4375 -5.90625 17.4375 -5.90625 C 20.53125 -5.90625 22.945312 -7.023438 24.6875 -9.265625 L 28.625 -4.859375 C 27.414062 -3.148438 25.785156 -1.816406 23.734375 -0.859375 C 21.679688 0.0859375 19.40625 0.5625 16.90625 0.5625 Z M 15.984375 -24.09375 C 14.398438 -24.09375 13.113281 -23.554688 12.125 -22.484375 C 11.132812 -21.410156 10.5 -19.875 10.21875 -17.875 L 21.375 -17.875 L 21.375 -18.515625 C 21.34375 -20.296875 20.863281 -21.671875 19.9375 -22.640625 C 19.007812 -23.609375 17.691406 -24.09375 15.984375 -24.09375 Z M 15.984375 -24.09375 "/></g></g></g><g fill="#91c8e4" fill-opacity="1"><g transform="translate(330.73125, 72.639461)"><g><path d="M 19.96875 -22.515625 C 18.875 -22.660156 17.910156 -22.734375 17.078125 -22.734375 C 14.035156 -22.734375 12.046875 -21.707031 11.109375 -19.65625 L 11.109375 0 L 3.078125 0 L 3.078125 -30.046875 L 10.65625 -30.046875 L 10.890625 -26.453125 C 12.492188 -29.210938 14.722656 -30.59375 17.578125 -30.59375 C 18.460938 -30.59375 19.296875 -30.472656 20.078125 -30.234375 Z M 19.96875 -22.515625 "/></g></g></g></svg>